<svg width="179" height="180" viewBox="0 0 179 180" fill="none" xmlns="http://www.w3.org/2000/svg">
<path d="M0 36.0712L89.6226 72.1941L89.6227 180L7.3089e-05 143.877L0 36.0712Z" fill="#36FF9A"/>
<path d="M0 36.0712L89.6226 72.1941L179 36.0712L89.6226 0L0 36.0712Z" fill="#00B9FB"/>
<path d="M89.6226 72.1941L89.6227 180L179 143.877V36.0712L89.6226 72.1941Z" fill="#FF5566"/>
<path d="M2.00007 142.527L2 39.0337L87.6227 73.5443L87.6227 177.038L2.00007 142.527ZM91.6227 177.035L91.6227 73.5429L177 39.0367V142.528L91.6227 177.035ZM173.659 36.0726L89.6216 70.0373L5.35329 36.0726L89.6216 2.15633L173.659 36.0726Z" stroke="#202020" stroke-width="4" stroke-linejoin="round"/>
</svg>
